<svg xmlns="http://www.w3.org/2000/svg" width="20.003" height="14.536"
     viewBox="0 0 20.003 14.536">
    <g id="icons8_Eye_96px" transform="translate(-3.95 -15.995)">
        <path id="Path_93" data-name="Path 93"
              d="M9.694,16.952a9.952,9.952,0,0,1,8.517,0,12.435,12.435,0,0,1,5.742,6.312,12.478,12.478,0,0,1-5.59,6.223,9.849,9.849,0,0,1-8.819,0A12.448,12.448,0,0,1,3.95,23.262a12.426,12.426,0,0,1,5.744-6.31m3.224,1.891a4.536,4.536,0,1,0,4.757,1.828A4.549,4.549,0,0,0,12.918,18.843Z"
              transform="translate(0 0)" fill="#c5c9d5" />
        <path id="Path_94" data-name="Path 94"
              d="M37.913,36.131a2.721,2.721,0,1,1-1.878,2.845A2.727,2.727,0,0,1,37.913,36.131Z"
              transform="translate(-24.788 -15.46)" fill="#c5c9d5" />
    </g>
</svg>
