<svg xmlns="http://www.w3.org/2000/svg" width="24" height="18.866" viewBox="0 0 24 18.866">
  <g id="hide" transform="translate(30.24 31.306) rotate(180)">
    <path id="Path_29" data-name="Path 29" d="M8.744,12.467c5.995-.052,11.992,0,17.986-.027a3.72,3.72,0,0,1,2.556.6,2.716,2.716,0,0,1,.949,2.284q0,6.6,0,13.193a2.617,2.617,0,0,1-1.846,2.676,12.687,12.687,0,0,1-2.457.1c-5.671-.005-11.339.008-17.007-.005A2.551,2.551,0,0,1,6.259,28.8c-.03-4.588-.019-9.178-.005-13.766a2.56,2.56,0,0,1,2.49-2.567m-.337,1.8c-.5.255-.447.88-.458,1.352.036,4.382-.025,8.767.027,13.146-.049.664.683.891,1.215.836,4.73-.011,9.461,0,14.194-.005q0-7.717,0-15.428c-4.275-.005-8.55,0-12.825-.005a9.548,9.548,0,0,0-2.15.1m16.689-.1V29.6a17.353,17.353,0,0,0,2.951-.093c.51-.222.472-.823.483-1.283q-.012-6.3,0-12.6c-.008-.48.033-1.1-.474-1.355A17.5,17.5,0,0,0,25.1,14.168Z" transform="translate(0 0)" fill="#c5c9d5"/>
    <path id="Path_30" data-name="Path 30" d="M43.751,31.23c1.431,1.42,2.849,2.857,4.272,4.286q-2.139,2.139-4.278,4.278C43.749,36.939,43.738,34.085,43.751,31.23Z" transform="translate(-27.22 -13.637)" fill="#c5c9d5"/>
    <path id="Path_31" data-name="Path 31" d="M24.99,43.75h5.092c-.008.57-.005,1.144.005,1.714h-5.1C25,44.894,25,44.32,24.99,43.75Z" transform="translate(-13.608 -22.724)" fill="#c5c9d5"/>
  </g>
</svg>
