<svg xmlns="http://www.w3.org/2000/svg" width="24.631" height="24.002" viewBox="0 0 24.631 24.002">
  <g id="icons8_Chart_96px" transform="translate(-9.021 -7.5)">
    <path id="Path_163" data-name="Path 163" d="M26.877,7.5a12.375,12.375,0,0,1,6.774,7.209c-.643.211-1.286.429-1.923.652A11.773,11.773,0,1,1,9.271,17.32a11.776,11.776,0,0,1,7.191-8.543,11.915,11.915,0,0,1,9.772.5c.217-.592.429-1.183.643-1.778M15.62,11.21a10.066,10.066,0,0,0-4.767,7.608q4.515.009,9.029,0c0-3.013.006-6.023-.006-9.032A10.678,10.678,0,0,0,15.62,11.21m6.086-1.422c-.027,3.185-.006,6.373-.009,9.558q3.369,3.383,6.75,6.753a10.031,10.031,0,0,0,1.564-10.116c-2.361.851-4.743,1.648-7.094,2.527C23.8,16,24.722,13.5,25.615,11a11.185,11.185,0,0,0-3.909-1.208m6.158.308c-.658,1.793-1.286,3.6-1.953,5.395,1.76-.613,3.523-1.2,5.271-1.841A10.089,10.089,0,0,0,27.864,10.1M10.853,20.635a9.98,9.98,0,0,0,16.323,6.732c-2.252-2.24-4.489-4.492-6.738-6.735Q15.647,20.632,10.853,20.635Z" fill="#c5c9d5"/>
  </g>
</svg>
