<svg xmlns="http://www.w3.org/2000/svg" width="13" height="12.993" viewBox="0 0 13 12.993">
  <g id="icons8_Search_96px" transform="translate(-8.011 -8.04)">
    <path id="Path_115" data-name="Path 115" d="M10.463,8.548a4.542,4.542,0,0,1,6.57,4.839,4.887,4.887,0,0,1-1.024,2.186l.279.26c.27,0,.541,0,.812,0,1.31,1.3,2.606,2.6,3.91,3.9-.435.429-.868.864-1.3,1.3-1.3-1.3-2.6-2.6-3.9-3.895,0-.279,0-.561,0-.842-.083-.091-.166-.184-.249-.276a4.632,4.632,0,0,1-4.553.838,4.548,4.548,0,0,1-.544-8.31m1.349.874a3.247,3.247,0,1,0,3.755,1.934A3.264,3.264,0,0,0,11.812,9.423Z" fill="#737689"/>
  </g>
</svg>
