<svg xmlns="http://www.w3.org/2000/svg" width="20.003" height="16.716" viewBox="0 0 20.003 16.716">
  <g id="icons8_Hide_96px" transform="translate(-3.93 -11.15)">
    <path id="Path_137" data-name="Path 137" d="M5.578,12.43c.422-.431.849-.856,1.28-1.28q7.751,7.68,15.434,15.427-.65.64-1.287,1.289-1.147-1.157-2.3-2.306a9.974,9.974,0,0,1-8.837.338A12.328,12.328,0,0,1,3.93,19.517a14.106,14.106,0,0,1,3.7-5.033L5.578,12.43m4.543,4.555A5.05,5.05,0,0,0,9.4,19.753a4.547,4.547,0,0,0,3.817,4.237,4.849,4.849,0,0,0,3.236-.674c-.436-.447-.876-.885-1.323-1.319a2.852,2.852,0,0,1-3.334-.8,2.964,2.964,0,0,1-.359-2.891Q10.793,17.635,10.121,16.985Z" fill="#737689"/>
    <path id="Path_138" data-name="Path 138" d="M34.84,16.481a10.076,10.076,0,0,1,7.235.5,12.466,12.466,0,0,1,5.753,6.309,15.268,15.268,0,0,1-2.412,3.772c-1.028-1.039-2.076-2.056-3.091-3.111a4.592,4.592,0,0,0-1.9-4.375,4.715,4.715,0,0,0-3.263-.785C36.376,18.036,35.612,17.255,34.84,16.481Z" transform="translate(-23.895 -3.781)" fill="#737689"/>
  </g>
</svg>
