<svg xmlns="http://www.w3.org/2000/svg" width="30" height="30.003" viewBox="0 0 30 30.003">
  <g id="profile_icon" transform="translate(-9.274 -6.266)">
    <path id="Path_20" data-name="Path 20" d="M19.632,6.353a15,15,0,1,1,1.341,29.911A15,15,0,0,1,19.632,6.353M9.313,17.008A12.571,12.571,0,0,0,11.5,29.3a10.756,10.756,0,0,1,5.782-6.118,6.837,6.837,0,0,1-1.611-2.908,5.752,5.752,0,0,1,10.7-3.986,5.925,5.925,0,0,1-1.094,6.887,10.949,10.949,0,0,1,5.823,6.207,13,13,0,0,0,2.294-11.915,12.7,12.7,0,0,0-24.074-.458m11.054-1.389a3.456,3.456,0,1,0,4.245,4.227,3.479,3.479,0,0,0-4.245-4.227M17.049,25.927A8.485,8.485,0,0,0,13.318,31.1a12.6,12.6,0,0,0,15.883.078,8.275,8.275,0,0,0-3.214-4.929A8.156,8.156,0,0,0,17.049,25.927Z" transform="translate(3 0)" fill="#c5c9d5"/>
  </g>
</svg>
