<svg xmlns="http://www.w3.org/2000/svg" width="44.342" height="45.589" viewBox="0 0 44.342 45.589">
  <g id="Group_5" data-name="Group 5" transform="translate(-124.931 -431.833)">
    <g id="Layer_1" data-name="Layer 1" transform="translate(124.931 431.833)">
      <g id="Group_10" data-name="Group 10">
        <g id="Group_5-2" data-name="Group 5">
          <path id="Path_17" data-name="Path 17" d="M144.4,447.178a13.723,13.723,0,0,1,2.442-6.641,11.083,11.083,0,1,0-13.132,13.221A16.621,16.621,0,0,1,144.4,447.178Zm-12.815-1.621a.7.7,0,0,1,.715-.715h2.274v-.532l-.311-.532h-1.964a.715.715,0,0,1,0-1.429h1.118l-2.419-3.977a1.6,1.6,0,0,1-.256-.752,1.422,1.422,0,0,1,1.575-1.337,1.4,1.4,0,0,1,1.247.861l2.456,4.674,2.454-4.674a1.4,1.4,0,0,1,1.246-.861,1.422,1.422,0,0,1,1.576,1.337,1.6,1.6,0,0,1-.255.751l-2.42,3.978h1.117a.715.715,0,0,1,0,1.429h-1.96l-.312.532v.532h2.273a.715.715,0,0,1,0,1.43h-2.273v1.813a1.447,1.447,0,1,1-2.893,0v-1.813h-2.274A.7.7,0,0,1,131.58,445.557Z" transform="translate(-124.931 -431.833)" fill="#fff"/>
        </g>
        <g id="Group_6" data-name="Group 6" transform="translate(22.287 5.543)">
          <path id="Path_18" data-name="Path 18" d="M163.223,438.628a11.1,11.1,0,0,0-10.969,9.567,16.52,16.52,0,0,1,5.99,1.171.775.775,0,0,1,.773-.461h.384a3.413,3.413,0,0,1-.549-1.962c0-2.272,2.016-3.866,4.6-3.866,3.211,0,4.766,1.723,4.766,3.153a1.238,1.238,0,0,1-1.375,1.283c-1.612,0-.624-2.236-3.1-2.236a1.919,1.919,0,0,0-2.107,1.833,4.024,4.024,0,0,0,.6,1.8h2c.75,0,1.136.276,1.136.88s-.385.879-1.136.879h-1.449a1.164,1.164,0,0,1,.094.44,2.37,2.37,0,0,1-.188.875,16.7,16.7,0,0,1,1.677,1.617,7.238,7.238,0,0,0,1.5.221c.309,0,1.065-.2,1.355-.2a1.061,1.061,0,0,1,1.064,1.171c0,1.034-.926,1.483-1.879,1.546a16.739,16.739,0,0,1,1.548,3.385,11.075,11.075,0,0,0-4.737-21.091Z" transform="translate(-152.254 -438.628)" fill="#fff"/>
        </g>
        <g id="Group_7" data-name="Group 7" transform="translate(22.904 33.053)">
          <path id="Path_19" data-name="Path 19" d="M153.011,472.355v4.535c1.373-.091,2.818-.732,2.818-2.245C155.829,473.087,154.245,472.629,153.011,472.355Z" transform="translate(-153.011 -472.355)" fill="#fff"/>
        </g>
        <g id="Group_8" data-name="Group 8" transform="translate(18.963 25.676)">
          <path id="Path_20" data-name="Path 20" d="M148.179,465.259c0,1.148.848,1.809,2.565,2.154v-4.1C149.185,463.358,148.179,464.273,148.179,465.259Z" transform="translate(-148.179 -463.311)" fill="#fff"/>
        </g>
        <g id="Group_9" data-name="Group 9" transform="translate(8.313 17.876)">
          <path id="Path_21" data-name="Path 21" d="M148.98,453.748A13.856,13.856,0,1,0,162.839,467.6,13.873,13.873,0,0,0,148.98,453.748Zm.734,22.05v1.421a.693.693,0,1,1-1.376,0V475.8c-3.87-.091-5.8-2.405-5.8-4.218a1.318,1.318,0,0,1,1.42-1.441c2.565,0,.571,3.162,4.376,3.322v-4.789c-3.393-.617-5.451-2.106-5.451-4.651,0-3.114,2.588-4.719,5.451-4.81v-1.22a.693.693,0,1,1,1.376,0v1.22c1.784.048,5.45,1.167,5.45,3.414a1.376,1.376,0,0,1-1.443,1.418c-1.489,0-1.469-2.449-4.005-2.5V465.9c3.024.642,5.7,1.534,5.7,5.065C155.418,474.035,153.125,475.594,149.714,475.8Z" transform="translate(-135.122 -453.748)" fill="#fff"/>
        </g>
      </g>
    </g>
  </g>
</svg>
