<svg id="download" xmlns="http://www.w3.org/2000/svg" width="24.622" height="26.516" viewBox="0 0 24.622 26.516">
  <g id="Group_7585" data-name="Group 7585" transform="translate(0 17.046)">
    <g id="Group_7584" data-name="Group 7584" transform="translate(0)">
      <path id="Path_928" data-name="Path 928" d="M40.741,307.2a.947.947,0,0,0-.947.947v5.682a.947.947,0,0,1-.947.947H19.907a.947.947,0,0,1-.947-.947v-5.682a.947.947,0,0,0-1.894,0v5.682a2.841,2.841,0,0,0,2.841,2.841h18.94a2.841,2.841,0,0,0,2.841-2.841v-5.682A.947.947,0,0,0,40.741,307.2Z" transform="translate(-17.066 -307.2)" fill="#018ea9"/>
    </g>
  </g>
  <g id="Group_7587" data-name="Group 7587" transform="translate(6.641)">
    <g id="Group_7586" data-name="Group 7586" transform="translate(0)">
      <path id="Path_929" data-name="Path 929" d="M147.8,16.377a.947.947,0,0,0-1.316,0l-3.12,3.118V.947a.947.947,0,1,0-1.894,0V19.5l-3.119-3.119a.947.947,0,0,0-1.339,1.339l4.735,4.735a.947.947,0,0,0,1.339,0l0,0,4.735-4.735A.947.947,0,0,0,147.8,16.377Z" transform="translate(-136.742)" fill="#018ea9"/>
    </g>
  </g>
</svg>
