<svg xmlns="http://www.w3.org/2000/svg" width="33.568" height="33.568" viewBox="0 0 33.568 33.568">
  <g id="Group_7328" data-name="Group 7328" transform="translate(0 0)">
    <g id="Group_7327" data-name="Group 7327" transform="translate(0 0)">
      <g id="Group_7326" data-name="Group 7326" transform="translate(0 0)">
        <path id="Path_842" data-name="Path 842" d="M32.916,26.692l-3.721-2.481-3.308-2.205a1.465,1.465,0,0,0-1.968.319l-2.047,2.632a1.458,1.458,0,0,1-1.861.386,23.834,23.834,0,0,1-6.656-5.129,24,24,0,0,1-5.129-6.656A1.458,1.458,0,0,1,8.612,11.7L11.243,9.65a1.465,1.465,0,0,0,.319-1.968L9.425,4.476,6.877.653A1.465,1.465,0,0,0,4.9.209L1.964,1.972A3.591,3.591,0,0,0,.333,4.083c-.8,2.931-.966,9.4,9.4,19.758s16.826,10.2,19.757,9.395A3.591,3.591,0,0,0,31.6,31.6l1.763-2.939A1.465,1.465,0,0,0,32.916,26.692Z" transform="translate(0 0)" fill="#fff"/>
        <path id="Path_843" data-name="Path 843" d="M283.061,62.95a9.85,9.85,0,0,1,9.839,9.839.579.579,0,0,0,1.158,0,11.009,11.009,0,0,0-11-11,.579.579,0,1,0,0,1.158Z" transform="translate(-263.962 -57.741)" fill="#fff"/>
        <path id="Path_844" data-name="Path 844" d="M283.06,115.914a6.374,6.374,0,0,1,6.366,6.366.579.579,0,1,0,1.158,0,7.533,7.533,0,0,0-7.524-7.524.579.579,0,1,0,0,1.158Z" transform="translate(-263.961 -107.232)" fill="#fff"/>
        <path id="Path_845" data-name="Path 845" d="M283.061,168.881a2.9,2.9,0,0,1,2.894,2.894.579.579,0,1,0,1.158,0,4.056,4.056,0,0,0-4.051-4.051.579.579,0,1,0,0,1.158Z" transform="translate(-263.962 -156.727)" fill="#fff"/>
      </g>
    </g>
  </g>
</svg>
