<svg xmlns="http://www.w3.org/2000/svg" width="142.11" height="94.74" viewBox="0 0 142.11 94.74">
  <g id="Group_7322" data-name="Group 7322" transform="translate(0 -85.333)">
    <g id="Group_7321" data-name="Group 7321" transform="translate(0 85.333)">
      <path id="Path_837" data-name="Path 837" d="M140.846,91.789a2.938,2.938,0,0,0-2.709-.356L114,100.211a11.755,11.755,0,0,0-6.708,6.17,11.9,11.9,0,0,0-.578,1.668,109.414,109.414,0,0,1-19.5-7.583c-11.567-5.96-20.4-3.016-27.982,2.765-3.84.076-9.133.53-14.336.988-3.319.293-6.456.562-9,.717A11.845,11.845,0,0,0,28.109,94.29L3.973,85.512A2.96,2.96,0,0,0,0,88.293v59.212a2.959,2.959,0,0,0,2.961,2.961h8.648a11.907,11.907,0,0,0,9.312-4.536c1.178.9,2.574,1.945,4.037,3.044,3.455,2.6,7.237,5.435,8.9,6.826C44.878,165.03,58.131,175,60.771,176.73a21.729,21.729,0,0,0,10.284,3.342c1.321,0,4.649,0,6.985-1.975a9.514,9.514,0,0,0,7.419-.165,11.1,11.1,0,0,0,5.49-5.493,11.525,11.525,0,0,0,7.378-1.081,10.093,10.093,0,0,0,4.811-4.843,9.3,9.3,0,0,0,6.468-2.064,9.593,9.593,0,0,0,3.879-8.782l7.51-4.155a11.861,11.861,0,0,0,9.506,4.873h8.648a2.959,2.959,0,0,0,2.961-2.961V94.215A2.961,2.961,0,0,0,140.846,91.789ZM17.154,140.7a5.949,5.949,0,0,1-5.545,3.843H5.921V92.52l20.164,7.332a5.923,5.923,0,0,1,3.521,7.641Zm88.859,19.045c-1,.769-2.408,1.2-3.033.573-.032-.032-.081-.029-.114-.059-.057-.052-.085-.123-.146-.172-2.116-1.671-11.6-11.374-17.46-17.486a2.959,2.959,0,0,0-4.273,4.094c1.376,1.436,12.418,12.936,16.838,16.959a4.088,4.088,0,0,1-2.147,2.41c-1.9.951-3.874.792-4.614.1-.022-.021-.055-.019-.077-.039s-.052-.077-.09-.108c-3.551-2.836-12.458-12.3-14.474-14.494a2.961,2.961,0,1,0-4.36,4.007c.1.105,8.827,9.522,13.73,13.9a5.2,5.2,0,0,1-2.723,3.087,3.865,3.865,0,0,1-4.045-.6c-4.252-3.6-12.784-12.687-14.462-14.484a2.96,2.96,0,0,0-4.325,4.042c1.99,2.129,7.87,8.362,12.341,12.583a12.8,12.8,0,0,1-1.522.1,16.273,16.273,0,0,1-7.031-2.371c-2.076-1.365-15.11-11.091-26.365-20.516-1.7-1.428-5.589-4.351-9.145-7.023-1.906-1.431-3.662-2.75-4.956-3.746l11.085-29.564c2.877-.126,6.714-.457,10.773-.815,2.3-.2,4.595-.4,6.792-.571-3.376,3.466-8.4,9.673-7.734,15.492a8.533,8.533,0,0,0,4.2,6.381c4.837,3.027,13.791.488,18.1-4.817a20.584,20.584,0,0,0,6.719-2.131c3.469,3.261,8.121,7.1,13.008,11.123,8.506,7.008,18.148,14.953,20.7,19.409A3.568,3.568,0,0,1,106.013,159.748Zm5.079-9.521c-3.945-5.277-12.5-12.337-20.828-19.2-5.554-4.577-10.8-8.9-14.155-12.256a2.974,2.974,0,0,0-3.49-.518c-3.016,1.616-4.374,2.284-7.78,2.625a2.962,2.962,0,0,0-2.209,1.368c-2.322,3.683-8.775,5.435-10.822,4.158a2.63,2.63,0,0,1-1.451-2.033c-.286-2.518,2.264-6.878,6.494-11.111,10.475-10.475,17.963-12.525,27.652-7.529a114.861,114.861,0,0,0,22.1,8.443,11.879,11.879,0,0,0,.353,1.326l11.5,30.657Zm25.1.24H130.5a5.949,5.949,0,0,1-5.545-3.843L112.5,113.418a5.925,5.925,0,0,1,3.521-7.645l20.164-7.332v52.025Z" transform="translate(0 -85.333)" fill="#fff"/>
    </g>
  </g>
</svg>
