<svg xmlns="http://www.w3.org/2000/svg" width="114.174" height="85.63" viewBox="0 0 114.174 85.63">
  <path id="Path_846" data-name="Path 846" d="M103.47,64H10.7A10.715,10.715,0,0,0,0,74.7v64.223a10.715,10.715,0,0,0,10.7,10.7H103.47a10.715,10.715,0,0,0,10.7-10.7V74.7A10.715,10.715,0,0,0,103.47,64Zm0,7.136a3.548,3.548,0,0,1,1.367.276L57.087,112.8,9.336,71.412a3.553,3.553,0,0,1,1.367-.276Zm0,71.358H10.7a3.57,3.57,0,0,1-3.568-3.568V78.951l47.613,41.264a3.573,3.573,0,0,0,4.676,0l47.613-41.264v59.975A3.57,3.57,0,0,1,103.47,142.494Z" transform="translate(0 -64)" fill="#fff"/>
</svg>
