<svg xmlns="http://www.w3.org/2000/svg" width="158.196" height="81.215" viewBox="0 0 158.196 81.215">
  <path id="Path_828" data-name="Path 828" d="M900.633,696.3c-9.922,0-22.111,7.85-32.109,19.575l-5.758-7.384,4.949,8.347a86.749,86.749,0,0,0-12.472,20.075c-9.875,22.357-5.6,40.6,9.521,40.6,9.5,0,21.076-7.2,30.817-18.1l6.061,7.768-5.2-8.754a86.945,86.945,0,0,0,13.706-21.52c9.873-22.37,5.6-40.613-9.517-40.613m-30.83,78.77c-14.8,1.468-21.068-14.47-13.968-35.488a75.145,75.145,0,0,1,12.18-22.241l7.915,13.342a13.723,13.723,0,0,0-1.376,5.153l-9.376,1.258,9.376,1.148a14.176,14.176,0,0,0,.935,4.087L868.223,757l9.855-10.85a5.8,5.8,0,0,0,3.15,1.447l.726,6.677.787-6.753a5.734,5.734,0,0,0,2.568-1.283l9.969,12.784c-7.814,9.024-17.133,15.216-25.475,16.05m39.755-40.829a75.418,75.418,0,0,1-13.387,23.725l-8.644-14.581a13.555,13.555,0,0,0,1.4-4.939l11.108-1.35-11.108-1.489a14.2,14.2,0,0,0-.876-3.833l8.09-16.15-11,11.984a5.76,5.76,0,0,0-2.432-1.15l-.749-6.41-.687,6.34a5.741,5.741,0,0,0-3.318,1.573l-9.1-11.664c8.062-9.831,17.942-16.673,26.746-17.549,14.8-1.477,21.072,14.472,13.964,35.494m20.188,4.159h-6.74V707.378h6.74l4.53,13.971V707.378h6.74V738.4h-7.069l-4.2-14.1Zm62.493,0,.477-5.58h2.9l.394,5.58h8.26l-4.614-31.023H987.988l-4.1,31.023Zm1.916-24.089c.418,5.162.817,9.5,1.236,13.017h-2.763q.309-4.122,1.527-13.017M945.693,735.8a7.405,7.405,0,0,0,3.194,2.447,11.788,11.788,0,0,0,4.472.815,11.55,11.55,0,0,0,4.6-.862,7.461,7.461,0,0,0,3.13-2.472,7.6,7.6,0,0,0,1.388-3.562c.133-1.3.209-3.5.209-6.614v-5.311c0-3.2-.077-5.429-.222-6.711a7.459,7.459,0,0,0-4.629-5.983,11.648,11.648,0,0,0-4.478-.818,11.464,11.464,0,0,0-4.593.859,7.494,7.494,0,0,0-3.137,2.476,7.3,7.3,0,0,0-1.378,3.556,66.1,66.1,0,0,0-.223,6.622v5.311c0,3.19.075,5.42.223,6.706a7.438,7.438,0,0,0,1.442,3.542m6.4-20.444a6.585,6.585,0,0,1,.343-2.881,1.075,1.075,0,0,1,.964-.493.946.946,0,0,1,.981.6,9.389,9.389,0,0,1,.244,2.773V729.6a15.191,15.191,0,0,1-.234,3.476.988.988,0,0,1-1.048.726.96.96,0,0,1-1.031-.632,15.08,15.08,0,0,1-.219-3.342ZM968.521,738.4l-4.66-31.023h8.509q1.469,12.818,2.1,21.673.625-8.95,1.326-15.907l.553-5.766h8.512L980.76,738.4ZM934.154,753.21a4.934,4.934,0,0,0,2.786-1.365,5.221,5.221,0,0,0,.7-3.149,8.925,8.925,0,0,0-.995-4.834,4.718,4.718,0,0,0-2.627-1.986,17.47,17.47,0,0,0-4.791-.489H922.56v25.7h7.733a19.607,19.607,0,0,0,5.34-.461,3.219,3.219,0,0,0,1.891-1.71,9.434,9.434,0,0,0,.592-3.865v-2.375a6.781,6.781,0,0,0-.821-3.732,4.981,4.981,0,0,0-3.142-1.735m-2.72,7.081a3.1,3.1,0,0,1-.386,1.952,2.841,2.841,0,0,1-1.8.45V755.5a3.085,3.085,0,0,1,1.841.4,3.393,3.393,0,0,1,.348,2ZM931.164,751c-.177.32-.6.483-1.247.483-.165,0-.389,0-.673.015v-5.723a5.564,5.564,0,0,1,1.39.145,1.108,1.108,0,0,1,.581.619,4.537,4.537,0,0,1,.218,1.687,7.851,7.851,0,0,1-.269,2.773m55.589,1.987,4.185,14.1h-6.909l-2.7-11.014v11.014h-6.688v-25.7h6.688v9.978l2.965-9.978h6.276Zm17.543-11.6h-9.669l-3.4,25.7h6.917l.4-4.621h2.4l.329,4.621h6.845Zm-5.834,16.529q.261-3.417,1.269-10.791.522,6.421,1.02,10.791ZM966.37,741.387h5.59v25.7H966.1l-3.482-11.681v11.681h-5.585v-25.7h5.585l3.749,11.57Zm-23.975,0-3.4,25.7h6.924l.392-4.621h2.406l.329,4.621h6.845l-3.829-25.7Zm3.841,16.529q.253-3.417,1.273-10.791.5,6.421,1.014,10.791Z" transform="translate(-849.925 -696.301)" fill="#fff" fill-rule="evenodd"/>
</svg>
