<svg xmlns="http://www.w3.org/2000/svg" width="54.242" height="54.243" viewBox="0 0 54.242 54.243">
  <g id="Group_7285" data-name="Group 7285" transform="translate(-303.551 -377.109)">
    <path id="Path_702" data-name="Path 702" d="M353.713,397.21l-2.374-.281a22.017,22.017,0,0,0-.892-2.15l1.481-1.878a4.368,4.368,0,0,0-.009-5.778l-4.14-4.141a4.369,4.369,0,0,0-5.779-.009l-1.878,1.482a21.682,21.682,0,0,0-2.15-.892l-.281-2.374a4.368,4.368,0,0,0-4.092-4.08h-5.855a4.369,4.369,0,0,0-4.093,4.08l-.28,2.375a21.654,21.654,0,0,0-2.149.891l-1.879-1.482a4.368,4.368,0,0,0-5.778.009l-4.14,4.14a4.367,4.367,0,0,0-.009,5.778l1.481,1.879a21.771,21.771,0,0,0-.891,2.15l-2.376.281a4.367,4.367,0,0,0-4.079,4.092v5.855a4.369,4.369,0,0,0,4.079,4.093l2.375.281a22,22,0,0,0,.891,2.149l-1.481,1.879a4.367,4.367,0,0,0,.009,5.778l4.14,4.141a4.369,4.369,0,0,0,5.778.009l1.879-1.481a22.164,22.164,0,0,0,2.15.891l.28,2.375a4.37,4.37,0,0,0,4.093,4.08H333.6a4.369,4.369,0,0,0,4.092-4.08l.281-2.375a21.926,21.926,0,0,0,2.151-.891L342,425.487a4.369,4.369,0,0,0,5.779-.009l4.14-4.141a4.368,4.368,0,0,0,.009-5.778l-1.481-1.879a22.244,22.244,0,0,0,.891-2.149l2.374-.281a4.37,4.37,0,0,0,4.08-4.093V401.3a4.368,4.368,0,0,0-4.08-4.092Zm1.962,9.947a2.273,2.273,0,0,1-2.21,1.988l-3.041.36a1.06,1.06,0,0,0-.885.731,19.79,19.79,0,0,1-1.279,3.086,1.059,1.059,0,0,0,.109,1.143l1.9,2.406a2.273,2.273,0,0,1,.156,2.968l-4.141,4.141a2.273,2.273,0,0,1-2.967-.157l-2.406-1.9a1.059,1.059,0,0,0-1.143-.109,19.7,19.7,0,0,1-3.087,1.28,1.06,1.06,0,0,0-.731.885l-.36,3.041a2.273,2.273,0,0,1-1.988,2.21h-5.855a2.272,2.272,0,0,1-1.988-2.21l-.36-3.041a1.057,1.057,0,0,0-.731-.885,19.788,19.788,0,0,1-3.086-1.28,1.068,1.068,0,0,0-.487-.119,1.05,1.05,0,0,0-.656.229l-2.406,1.9a2.273,2.273,0,0,1-2.967.157l-4.141-4.141a2.273,2.273,0,0,1,.156-2.968l1.9-2.4a1.061,1.061,0,0,0,.109-1.144,19.8,19.8,0,0,1-1.279-3.086,1.06,1.06,0,0,0-.885-.731l-3.041-.36a2.271,2.271,0,0,1-2.209-1.988V401.3a2.272,2.272,0,0,1,2.21-1.988l3.041-.36a1.057,1.057,0,0,0,.885-.73,19.7,19.7,0,0,1,1.279-3.087,1.059,1.059,0,0,0-.109-1.143l-1.9-2.4a2.272,2.272,0,0,1-.157-2.968l4.14-4.141a2.273,2.273,0,0,1,2.968.157l2.406,1.9a1.061,1.061,0,0,0,1.143.109,19.742,19.742,0,0,1,3.085-1.28,1.056,1.056,0,0,0,.731-.885l.36-3.04a2.272,2.272,0,0,1,1.988-2.21H333.6a2.273,2.273,0,0,1,1.988,2.209l.36,3.041a1.06,1.06,0,0,0,.731.885,19.7,19.7,0,0,1,3.086,1.28,1.061,1.061,0,0,0,1.143-.109l2.406-1.9a2.273,2.273,0,0,1,2.968-.157l4.14,4.141a2.273,2.273,0,0,1-.156,2.968l-1.9,2.406a1.059,1.059,0,0,0-.109,1.143,19.614,19.614,0,0,1,1.279,3.086,1.06,1.06,0,0,0,.885.73l3.042.36a2.274,2.274,0,0,1,2.21,1.988Zm0,0" fill="#febe10"/>
    <path id="Path_703" data-name="Path 703" d="M330.672,387.1a17.153,17.153,0,0,0-17.133,17.133,16.979,16.979,0,0,0,3.481,10.354,17.261,17.261,0,0,0,8.808,6.085,1.06,1.06,0,1,0,.6-2.033,15.015,15.015,0,1,1,8.022.13,1.059,1.059,0,1,0,.532,2.051,17.136,17.136,0,0,0-4.308-33.72Zm0,0" fill="#febe10"/>
    <path id="Path_704" data-name="Path 704" d="M338.97,409.2l-7.238-5.5v-4.732a1.059,1.059,0,0,0-2.119,0v5.257a1.06,1.06,0,0,0,.418.844l7.657,5.817a1.06,1.06,0,1,0,1.282-1.688Zm0,0" fill="#febe10"/>
    <path id="Path_705" data-name="Path 705" d="M331.732,394.486a1.059,1.059,0,1,1-1.06-1.06,1.06,1.06,0,0,1,1.06,1.06Zm0,0" fill="#febe10"/>
    <path id="Path_706" data-name="Path 706" d="M331.346,420.3a1.06,1.06,0,1,1-1.06-1.06,1.06,1.06,0,0,1,1.06,1.06Zm0,0" fill="#febe10"/>
  </g>
</svg>
