<svg xmlns="http://www.w3.org/2000/svg" width="54.243" height="48.877" viewBox="0 0 54.243 48.877">
  <g id="Group_7288" data-name="Group 7288" transform="translate(-141.878 -141.071)">
    <path id="Path_690" data-name="Path 690" d="M175.515,141.071h-12.9A3.619,3.619,0,0,0,159,144.685v1.661a1.06,1.06,0,1,0,2.119,0v-1.661a1.5,1.5,0,0,1,1.5-1.495h12.9a1.5,1.5,0,0,1,1.495,1.495v1.661a1.06,1.06,0,1,0,2.119,0v-1.661a3.618,3.618,0,0,0-3.614-3.614Zm0,0" fill="#febe10"/>
    <path id="Path_691" data-name="Path 691" d="M190.948,149.631h-43.9a5.178,5.178,0,0,0-5.173,5.172v9.408a1.06,1.06,0,0,0,.76,1.016l.645.19V187.61a2.341,2.341,0,0,0,2.337,2.338h46.758a2.34,2.34,0,0,0,2.337-2.338V165.573l.64-.184a1.061,1.061,0,0,0,.766-1.018V154.8a5.179,5.179,0,0,0-5.173-5.172Zm-39.616,38.2H145.62a.219.219,0,0,1-.218-.219V181.9h3.047a2.886,2.886,0,0,1,2.883,2.883Zm41.264-.219a.218.218,0,0,1-.218.219h-5.711v-3.047a2.886,2.886,0,0,1,2.882-2.883H192.6Zm0-7.83h-3.047a5.008,5.008,0,0,0-5,5v3.047h-31.1v-3.047a5.008,5.008,0,0,0-5-5H145.4V166.042l18.705,5.517v3.4a1.061,1.061,0,0,0,1.06,1.06h7.665a1.06,1.06,0,0,0,1.059-1.06v-3.376l18.7-5.4Zm-26.37-5.876v-5.163h5.547V173.9ZM194,163.574l-20.111,5.808v-1.7a1.059,1.059,0,0,0-1.059-1.059h-7.665a1.06,1.06,0,0,0-1.06,1.059v1.669L144,163.419V154.8a3.057,3.057,0,0,1,3.054-3.054h4.281v3.668a1.06,1.06,0,0,0,2.119,0v-3.668h30.713v3.668a1.06,1.06,0,0,0,2.119,0v-3.668h4.665A3.057,3.057,0,0,1,194,154.8Zm0,0" fill="#febe10"/>
    <path id="Path_692" data-name="Path 692" d="M186.284,159.5a1.06,1.06,0,1,1-1.06-1.059,1.061,1.061,0,0,1,1.06,1.059Zm0,0" fill="#febe10"/>
    <path id="Path_693" data-name="Path 693" d="M153.45,159.5a1.06,1.06,0,1,1-1.059-1.059,1.06,1.06,0,0,1,1.059,1.059Zm0,0" fill="#febe10"/>
  </g>
</svg>
