<svg xmlns="http://www.w3.org/2000/svg" width="52.611" height="54.243" viewBox="0 0 52.611 54.243">
  <g id="Group_7284" data-name="Group 7284" transform="translate(-304.367 -138.388)">
    <path id="Path_710" data-name="Path 710" d="M351.4,174.207a1.059,1.059,0,1,1-1.06-1.059,1.06,1.06,0,0,1,1.06,1.059Zm0,0" fill="#febe10"/>
    <path id="Path_711" data-name="Path 711" d="M311.069,174.207a1.059,1.059,0,1,1-1.059-1.059,1.059,1.059,0,0,1,1.059,1.059Zm0,0" fill="#febe10"/>
    <path id="Path_712" data-name="Path 712" d="M355.918,190.511h-9.1l-.056-26.037a1.059,1.059,0,0,0-1.059-1.058h0a1.06,1.06,0,0,0-1.058,1.062l.056,26.033h-3.078l-.027-11.585a1.059,1.059,0,0,0-1.06-1.056h0a1.058,1.058,0,0,0-1.057,1.062l.027,11.579h-2.573V176.488a5.811,5.811,0,0,0,5.357-5.722V160.5a11.517,11.517,0,0,0-1.008-4.712,8.771,8.771,0,0,1,5.538,2.438,8.211,8.211,0,0,1,2.55,5.93l.02,6.03a1.059,1.059,0,0,0,1.059,1.056h0a1.06,1.06,0,0,0,1.056-1.063l-.019-6.029a10.319,10.319,0,0,0-3.2-7.448,10.824,10.824,0,0,0-4.088-2.483,5.6,5.6,0,0,0-3.862-9.666h-.012a5.631,5.631,0,0,0-2.585.637,1.06,1.06,0,0,0,.983,1.878,3.487,3.487,0,1,1,1.622,6.579,1.174,1.174,0,0,0-.134.009l-.17.008a12.057,12.057,0,0,0-6.128-4.386,6.216,6.216,0,1,0-7.995.162,12.05,12.05,0,0,0-5.646,4.218c-.168-.007-.336-.012-.5-.012-.08,0-.159,0-.238,0-.019,0-.038,0-.058,0a3.487,3.487,0,1,1,1.663-6.553,1.06,1.06,0,0,0,1.012-1.862,5.6,5.6,0,0,0-6.356,9.151,10.555,10.555,0,0,0-6.846,9.792v6.009a1.059,1.059,0,0,0,2.119,0v-6.009a8.54,8.54,0,0,1,7.961-8.376,11.5,11.5,0,0,0-1.005,4.7v10.268a5.819,5.819,0,0,0,5.536,5.736v14.009h-2.886V178.929a1.059,1.059,0,1,0-2.119,0v11.582h-2.605V164.487a1.059,1.059,0,1,0-2.119,0v26.024h-8.406a1.06,1.06,0,0,0,0,2.12h50.492a1.06,1.06,0,1,0,0-2.12ZM325.725,144.6a4.1,4.1,0,1,1,4.1,4.1,4.1,4.1,0,0,1-4.1-4.1Zm10.146,15.191a1.06,1.06,0,0,0-1.059,1.06v29.656h-3.774V175.769a1.059,1.059,0,0,0-2.119,0v14.742h-3.238V160.855a1.06,1.06,0,1,0-2.12,0v13.522a3.69,3.69,0,0,1-3.416-3.611V160.5a9.41,9.41,0,0,1,1.542-5.162,10.2,10.2,0,0,1,16.947.011,9.416,9.416,0,0,1,1.535,5.151v10.268a3.683,3.683,0,0,1-3.238,3.591v-13.5a1.06,1.06,0,0,0-1.06-1.06Zm0,0" fill="#febe10"/>
  </g>
</svg>
